HIERARCHY
ROOT Hips
{
	OFFSET -21.947001 39.810204 44.525997
	CHANNELS 6 Xposition Yposition Zposition Zrotation Xrotation Yrotation
	JOINT Chest
	{
		OFFSET -0.201599 0.334099 6.453201
		CHANNELS 6 Xposition Yposition Zposition Zrotation Xrotation Yrotation
		JOINT Chest2
		{
			OFFSET 0.000000 0.000000 3.568001
			CHANNELS 6 Xposition Yposition Zposition Zrotation Xrotation Yrotation
			JOINT Neck
			{
				OFFSET 0.000000 0.000000 8.296402
				CHANNELS 6 Xposition Yposition Zposition Zrotation Xrotation Yrotation
				JOINT Head
				{
					OFFSET 0.000000 0.000000 2.173901
					CHANNELS 6 Xposition Yposition Zposition Zrotation Xrotation Yrotation
					End Site
					{
						OFFSET 0.000000 0.000000 7.891998
					}
				}
			}
			JOINT LeftCollar
			{
				OFFSET 1.927601 0.221401 6.049000
				CHANNELS 6 Xposition Yposition Zposition Zrotation Xrotation Yrotation
				JOINT LeftShoulder
				{
					OFFSET 4.959700 0.000000 0.000000
					CHANNELS 6 Xposition Yposition Zposition Zrotation Xrotation Yrotation
					JOINT LeftElbow
					{
						OFFSET 0.000000 0.000000 -8.654202
						CHANNELS 6 Xposition Yposition Zposition Zrotation Xrotation Yrotation
						JOINT LeftWrist
						{
							OFFSET 0.000000 0.000000 -13.864101
							CHANNELS 6 Xposition Yposition Zposition Zrotation Xrotation Yrotation
							End Site
							{
								OFFSET 0.000000 0.000000 -2.173901
							}
						}
					}
				}
			}
			JOINT RightCollar
			{
				OFFSET -3.155701 -0.764999 6.687801
				CHANNELS 6 Xposition Yposition Zposition Zrotation Xrotation Yrotation
				JOINT RightShoulder
				{
					OFFSET -3.592899 0.000000 0.000000
					CHANNELS 6 Xposition Yposition Zposition Zrotation Xrotation Yrotation
					JOINT RightElbow
					{
						OFFSET 0.000000 0.000000 -10.352398
						CHANNELS 6 Xposition Yposition Zposition Zrotation Xrotation Yrotation
						JOINT RightWrist
						{
							OFFSET 0.000000 0.000000 -12.750301
							CHANNELS 6 Xposition Yposition Zposition Zrotation Xrotation Yrotation
							End Site
							{
								OFFSET 0.000000 0.000000 -2.173901
							}
						}
					}
				}
			}
		}
	}
	JOINT LeftHip
	{
		OFFSET 2.460600 -0.518101 -2.735500
		CHANNELS 6 Xposition Yposition Zposition Zrotation Xrotation Yrotation
		JOINT LeftKnee
		{
			OFFSET 0.000000 -0.000004 -17.005899
			CHANNELS 6 Xposition Yposition Zposition Zrotation Xrotation Yrotation
			JOINT LeftAnkle
			{
				OFFSET 0.000000 0.000000 -19.194401
				CHANNELS 6 Xposition Yposition Zposition Zrotation Xrotation Yrotation
				End Site
				{
					OFFSET 0.000000 -8.134600 0.000000
				}
			}
		}
	}
	JOINT RightHip
	{
		OFFSET -3.115499 -0.679600 -2.320301
		CHANNELS 6 Xposition Yposition Zposition Zrotation Xrotation Yrotation
		JOINT RightKnee
		{
			OFFSET 0.000000 -0.000004 -17.680401
			CHANNELS 6 Xposition Yposition Zposition Zrotation Xrotation Yrotation
			JOINT RightAnkle
			{
				OFFSET 0.000000 0.000000 -16.993797
				CHANNELS 6 Xposition Yposition Zposition Zrotation Xrotation Yrotation
				End Site
				{
					OFFSET 0.000000 -8.842300 0.000000
				}
			}
		}
	}
}
MOTION
Frames: 4
Frame Time: 0.041667
-21.787392 17.518904 22.060190 2591.618347 -37.289168 -14.267461 -0.201593 0.334096 6.453204 5.473701 -14.763427 -11.864842 0.000001 -0.000001 3.567997 -6.339271 11.252792 0.589083 0.000004 0.000003 8.296392 213.245350 -156.705740 190.603191 -0.000003 -0.000005 2.173907 -14.825054 -5.089137 12.568793 1.927600 0.221404 6.048991 -10.038795 -10.375085 -0.764285 4.959698 -0.000004 0.000011 268.345319 170.401677 47.291297 0.000002 0.000007 -8.654195 180.951000 -16.931281 15.751871 -0.000004 -0.000004 -13.864094 4199.962223 -151.303074 210.940625 -3.155704 -0.764997 6.687797 33.717895 8.037785 51.500893 -3.592899 -0.000000 0.000010 -235.497491 137.846919 253.103014 0.000000 0.000005 -10.352402 -593.468088 30.047471 -434.616002 0.000001 0.000004 -12.750299 94.166944 209.044046 -148.708955 2.460597 -0.518107 -2.735502 -243.051353 -20.539451 58.896257 -0.000000 -0.000007 -17.005898 -0.839262 192.168930 -78.327059 -0.000005 0.000002 -19.194401 583.940138 160.633564 220.874575 -3.115498 -0.679599 -2.320298 -223.630079 54.353037 -104.602571 0.000003 0.000000 -17.680399 -489.988427 173.547430 -207.869171 0.000003 0.000002 -16.993792 1005.459471 36.738273 -418.782694
-21.783997 17.554005 22.047394 2591.597801 -37.364468 -14.312081 -0.201602 0.334097 6.453200 5.383007 -14.683288 -11.884555 0.000002 0.000004 3.567996 -6.271977 11.233964 0.594036 -0.000000 0.000004 8.296402 213.285402 -156.709743 190.553412 -0.000005 -0.000003 2.173901 -14.867339 -5.099143 12.539336 1.927600 0.221406 6.049002 -10.108109 -10.356393 -0.704032 4.959694 -0.000001 -0.000000 268.354198 170.557391 47.301673 0.000002 0.000001 -8.654195 180.678612 -16.938533 15.748671 -0.000004 -0.000004 -13.864100 4199.796550 -151.339602 210.688182 -3.155704 -0.764993 6.687806 33.639484 8.059349 51.346637 -3.592901 -0.000001 0.000003 -235.467165 137.927747 253.036871 -0.000004 -0.000001 -10.352399 -593.459127 29.950923 -434.655917 0.000003 0.000003 -12.750299 93.939055 209.009021 -148.746002 2.460604 -0.518101 -2.735502 -243.000208 -20.549123 58.838801 -0.000002 -0.000003 -17.005901 -0.773063 191.945296 -78.240145 -0.000004 0.000005 -19.194405 583.737637 160.598894 220.527984 -3.115502 -0.679604 -2.320294 -223.528322 54.313709 -104.711007 0.000003 0.000000 -17.680399 -490.271580 173.414118 -207.903445 0.000000 0.000000 -16.993792 1005.593124 36.815857 -418.726332
-21.780195 17.590406 22.033396 2591.420326 -36.947437 -14.429536 -0.201600 0.334098 6.453200 5.550645 -15.065586 -11.856506 0.000002 0.000005 3.568003 -6.216525 11.230162 0.599234 0.000003 -0.000003 8.296393 213.405750 -156.730370 190.461328 -0.000002 0.000004 2.173904 -14.948045 -5.144434 12.572287 1.927600 0.221403 6.049002 -10.153102 -10.345745 -0.723098 4.959702 0.000004 0.000002 268.383650 170.635297 47.286899 -0.000002 0.000005 -8.654201 180.455019 -16.922907 15.734929 -0.000002 -0.000006 -13.864100 4199.769448 -150.887635 210.333667 -3.155700 -0.765000 6.687801 33.561661 8.034062 51.194068 -3.592897 0.000004 -0.000002 -235.432741 138.005939 252.985153 -0.000005 0.000006 -10.352396 -593.443226 29.931921 -434.671927 0.000001 0.000003 -12.750301 80.162461 212.429115 -155.672784 2.460601 -0.518105 -2.735497 -242.539362 -20.365140 59.235321 -0.000006 0.000001 -17.005899 -0.734042 191.777013 -78.141141 -0.000002 0.000002 -19.194397 583.520273 160.650284 220.400752 -3.115499 -0.679602 -2.320298 -223.627825 54.591189 -104.274319 0.000004 0.000001 -17.680403 -490.522985 173.270206 -207.932432 -0.000002 -0.000004 -16.993795 1005.756065 36.881939 -418.658795
-21.776299 17.627806 22.018597 2591.399343 -36.953400 -14.484748 -0.201599 0.334102 6.453208 5.503677 -15.079768 -11.801521 -0.000001 0.000010 3.568000 -6.177399 11.240292 0.603916 -0.000002 -0.000004 8.296395 213.561260 -156.750779 190.325503 -0.000006 0.000002 2.173906 -15.044142 -5.233642 12.661354 1.927594 0.221403 6.048998 -10.147405 -10.361651 -0.825170 4.959698 0.000008 0.000004 268.409577 170.621281 47.238763 0.000002 -0.000002 -8.654188 180.284551 -16.892762 15.713035 0.000004 0.000000 -13.864100 4199.709123 -150.724667 210.059900 -3.155706 -0.764997 6.687802 33.467189 7.940792 51.053069 -3.592903 0.000004 0.000004 -235.351817 138.090961 252.955509 -0.000001 -0.000001 -10.352392 -593.440494 29.990070 -434.654715 0.000001 -0.000001 -12.750304 80.053007 212.397204 -155.719844 2.460597 -0.518100 -2.735495 -242.423904 -20.313572 59.277320 -0.000000 -0.000002 -17.005894 -0.724505 191.674164 -78.032958 -0.000004 -0.000001 -19.194401 583.290997 160.793745 220.527042 -3.115499 -0.679597 -2.320291 -223.540972 54.627710 -104.339022 -0.000003 0.000001 -17.680397 -490.619537 173.166633 -207.948429 0.000007 -0.000004 -16.993793 1005.875730 36.931721 -418.663467
